<?xml version="1.0" encoding="UTF-8"?>
<!DOCTYPE svg PUBLIC "-//W3C//DTD SVG 1.1//EN" "http://www.w3.org/Graphics/SVG/1.1/DTD/svg11.dtd">
<!-- Creator: CorelDRAW -->
<svg xmlns="http://www.w3.org/2000/svg" xml:space="preserve" width="106.713mm" height="94.8098mm" version="1.1" style="shape-rendering:geometricPrecision; text-rendering:geometricPrecision; image-rendering:optimizeQuality; fill-rule:evenodd; clip-rule:evenodd"
viewBox="0 0 10671 9481"
 xmlns:xlink="http://www.w3.org/1999/xlink">
 <defs>
  <style type="text/css">
   <![CDATA[
    .fil10 {fill:black}
    .fil0 {fill:#00BEEC}
    .fil9 {fill:#A29494}
    .fil3 {fill:#BE794B}
    .fil7 {fill:#D0BDBD}
    .fil8 {fill:#E7D9D9}
    .fil2 {fill:#F0CA80}
    .fil4 {fill:#FFCC7E}
    .fil1 {fill:#FFE400}
    .fil6 {fill:#FFECEC}
    .fil5 {fill:white}
   ]]>
  </style>
 </defs>
 <g id="__x0023_Layer_x0020_1">
  <metadata id="CorelCorpID_0Corel-Layer"/>
  <g id="natu0297.ai">
   <g>
    <polygon class="fil0" points="813,1362 2108,566 3554,905 4724,54 6132,495 7503,0 9804,708 10671,2938 9615,3965 10227,4761 8580,5596 8634,6513 6040,6409 5206,5897 2276,6354 570,5876 0,3932 1241,3009 "/>
    <polygon class="fil1" points="7096,2796 7096,2284 7431,1840 8022,1861 8429,2071 8488,2498 8395,2921 7985,3135 7486,3114 "/>
    <polygon class="fil2" points="423,6815 2444,6304 4296,6446 5298,6744 6798,6920 8802,7222 7762,8198 6836,8391 7243,8957 5633,9116 3630,9481 2351,8974 1257,9028 1182,8500 88,8127 "/>
    <polygon class="fil3" points="4066,5629 4355,8349 4665,8433 4690,8177 4217,5621 "/>
    <polygon class="fil4" points="3722,3240 3760,3072 3831,2959 3961,3018 4024,3227 "/>
    <polygon class="fil5" points="3827,3257 4041,3219 5621,4330 5541,4866 4137,5185 3793,4841 3760,3433 "/>
    <polygon class="fil6" points="3906,3240 5629,4397 5805,4376 5990,4657 6622,4116 6174,3730 4523,3265 "/>
    <polygon class="fil7" points="4305,3257 5751,3596 6308,3869 6639,4175 6727,3906 6518,3676 5298,3303 "/>
    <polygon class="fil8" points="3831,3265 3856,4782 3609,5218 2423,5185 2397,4849 2942,3999 3760,3286 "/>
    <polygon class="fil7" points="1723,4933 1710,4703 2783,3718 3374,3387 3739,3248 3848,3257 3328,3693 2607,4489 2372,4866 2268,4820 2117,4866 1932,5072 "/>
    <polygon class="fil9" points="2846,3693 1668,4749 1677,4397 2607,3739 "/>
    <polygon class="fil10" points="3688,3240 3684,3156 3697,3072 3739,2980 3768,2942 3785,2930 3802,2921 3877,2917 3932,2938 3952,2951 3999,3005 4049,3102 4074,3248 3932,3248 3927,3135 3911,3060 3877,3030 3831,3068 3802,3139 3781,3240 "/>
    <polygon class="fil10" points="3718,3223 3680,3232 3579,3257 3508,3278 3429,3303 3382,3315 3336,3332 3286,3345 3236,3362 3185,3382 3135,3399 3081,3420 3026,3441 2972,3462 2917,3487 2863,3508 2808,3533 2754,3559 2699,3588 2649,3613 2620,3630 2594,3642 2569,3655 2544,3672 2519,3684 2498,3701 2473,3718 2448,3730 2427,3747 2406,3764 2381,3781 2360,3797 2339,3814 2318,3827 2238,3890 2159,3953 2087,4007 2020,4061 1957,4116 1899,4166 1844,4208 1756,4288 1693,4346 1639,4397 1484,4866 1706,4736 1727,4435 2460,3894 1836,4611 1874,4577 1915,4539 1974,4489 2041,4430 2121,4363 2205,4292 2293,4217 2385,4141 2477,4061 2565,3986 2653,3915 2733,3852 2808,3793 2871,3743 2896,3726 2921,3709 2942,3693 2968,3680 2993,3663 3018,3647 3047,3630 3076,3613 3106,3596 3139,3579 3169,3563 3202,3542 3236,3525 3269,3508 3303,3491 3336,3475 3370,3458 3403,3441 3433,3424 3466,3408 3496,3395 3529,3378 3584,3353 3638,3328 3680,3311 3718,3294 3768,3278 3848,3269 3952,3261 4087,3248 4032,3202 "/>
    <polygon class="fil10" points="3730,3357 3705,3387 3638,3458 3588,3508 3533,3563 3475,3626 3412,3693 3345,3760 3278,3827 3211,3898 3148,3965 3085,4028 3026,4087 2976,4141 2930,4187 2892,4229 2846,4275 2804,4330 2758,4380 2712,4435 2670,4493 2628,4544 2586,4598 2548,4648 2515,4694 2456,4774 2406,4845 2423,4791 2444,4728 2477,4648 2498,4602 2523,4552 2548,4502 2578,4451 2611,4397 2645,4342 2682,4288 2729,4233 2775,4179 2825,4120 2884,4061 2942,4003 3001,3948 3064,3890 3127,3835 3185,3781 3240,3735 3294,3688 3382,3613 3466,3550 "/>
    <polygon class="fil10" points="1706,4816 1656,5046 2041,5164 2058,5118 2100,5005 2125,4946 2154,4896 2188,4858 2200,4849 2217,4845 2268,4845 2301,4858 2347,4937 2372,5130 2377,5256 3709,5290 3693,5260 3672,5231 3642,5197 3596,5160 3571,5143 3538,5130 3504,5118 3462,5105 3370,5088 2825,5080 2494,5084 2473,4942 2452,4887 2418,4837 2377,4795 2347,4778 2318,4770 2255,4766 2192,4782 2138,4812 2092,4849 2020,4921 1991,4958 "/>
    <polygon class="fil10" points="3659,5164 3647,5067 3659,4975 3672,4925 3697,4875 3730,4829 3764,4791 3802,4761 3839,4745 3881,4736 3932,4745 3982,4766 4007,4787 4036,4808 4124,4900 4175,4975 4204,5051 4309,5030 4426,5009 4560,4984 4636,4971 4707,4954 4782,4937 4849,4925 4917,4908 4975,4891 5072,4866 5151,4841 5189,4824 5231,4812 5269,4795 5306,4782 5344,4770 5378,4753 5440,4728 5491,4711 5537,4690 5516,4393 5554,4359 5570,4346 5591,4334 5637,4321 5629,4875 5591,4887 5545,4904 5487,4921 5415,4946 5331,4971 5290,4984 5243,4996 5197,5013 5151,5026 5101,5042 5055,5055 5009,5067 4963,5084 4870,5109 4782,5134 4703,5155 4636,5168 4535,5189 4250,5214 4095,5235 4078,5189 4053,5147 4028,5093 3990,5042 3952,5000 3932,4984 3906,4971 3864,4963 3818,4975 3781,4996 3714,5067 3672,5134 "/>
    <polygon class="fil10" points="5600,4338 5616,4326 5637,4313 5663,4300 5692,4288 5730,4288 5801,4313 5872,4380 5922,4460 5960,4556 5977,4548 6023,4518 6052,4502 6086,4481 6124,4455 6166,4430 6187,4414 6212,4401 6233,4388 6254,4372 6279,4355 6300,4342 6321,4326 6342,4309 6425,4246 6492,4187 6551,4129 6597,4074 6639,4024 6673,3978 6710,3911 6723,3885 6731,4041 6715,4116 6685,4191 6664,4229 6639,4267 6606,4305 6568,4342 6476,4414 6425,4455 6371,4497 6321,4539 6266,4581 6157,4661 6136,4678 6111,4694 6086,4715 6065,4732 6044,4745 6023,4761 5990,4787 5960,4808 5935,4824 5918,4841 5906,4632 5889,4556 5860,4485 5822,4430 5801,4414 5772,4405 5671,4401 5604,4426 5549,4468 "/>
    <polygon class="fil10" points="3852,3382 3768,3663 3827,4652 3932,4585 "/>
    <polygon class="fil10" points="4049,3332 5311,4091 5503,4300 5181,4208 4099,3433 "/>
    <polygon class="fil10" points="4003,3240 4149,3253 4309,3265 4510,3282 4740,3303 4975,3328 5210,3353 5424,3382 5524,3399 5621,3420 5713,3441 5805,3462 5889,3483 5973,3508 6052,3529 6124,3550 6195,3575 6258,3596 6312,3617 6367,3638 6409,3659 6446,3676 6505,3705 6543,3730 6581,3760 6648,3814 6719,3877 6698,3776 6669,3693 6643,3647 6610,3609 6581,3592 6534,3567 6472,3542 6438,3529 6400,3517 6358,3504 6316,3487 6270,3475 6224,3458 6178,3441 6132,3429 6082,3412 6036,3399 5985,3382 5939,3370 5847,3345 5763,3320 5688,3299 5625,3282 5575,3269 5533,3257 4397,3165 4015,3202 "/>
    <polygon class="fil10" points="3885,4875 4275,7918 4271,8408 4422,8354 4166,6015 4271,5906 4451,7125 4640,8265 4502,8467 4782,8458 4736,8140 4506,7042 4393,6358 4263,5076 "/>
    <polygon class="fil10" points="4296,8341 4271,8333 4208,8307 4166,8291 4116,8274 4061,8253 4003,8232 3940,8211 3877,8190 3814,8169 3755,8152 3697,8136 3642,8123 3546,8110 3211,8119 3047,8102 2972,8081 2900,8043 2833,7955 2833,7918 2850,7880 2900,7830 2926,7813 2741,7804 2293,7796 1760,7821 1521,7851 1412,7871 1320,7897 1278,7909 1236,7926 1148,7951 1060,7972 972,7997 884,8014 801,8031 641,8048 507,8056 407,8039 348,8006 344,7947 360,7909 390,7876 428,7838 474,7800 503,7783 528,7767 557,7750 591,7729 620,7712 654,7695 687,7679 725,7662 759,7649 796,7633 830,7616 868,7599 905,7586 943,7574 1014,7545 1086,7519 1153,7498 1215,7477 1270,7465 1329,7444 1396,7423 1471,7398 1513,7385 1555,7369 1597,7356 1639,7339 1681,7322 1727,7310 1773,7293 1819,7276 1861,7264 1907,7247 1953,7234 1995,7222 2083,7197 2167,7180 2242,7163 2372,7155 2465,7176 2502,7197 2536,7213 2574,7230 2611,7247 2645,7264 2682,7276 2762,7297 2838,7314 2921,7322 3089,7322 3362,7297 3546,7276 3735,7255 3919,7234 4070,7218 4212,7201 4250,7352 4233,7381 4179,7452 4137,7494 4087,7540 4057,7566 4024,7586 3990,7607 3948,7628 3906,7645 3860,7666 3806,7679 3751,7695 3693,7708 3630,7721 3512,7742 3403,7754 3315,7767 3236,7775 3248,7796 3294,7842 3311,7859 3332,7867 3378,7892 3441,7905 3517,7909 3785,7913 3890,7934 3940,7951 3990,7976 4015,7989 4041,8006 4070,8018 4095,8035 4124,8048 4149,8064 4200,8089 4242,8110 4275,8131 4309,8148 "/>
    <polygon class="fil10" points="4673,7318 4699,7297 4732,7276 4753,7264 4774,7251 4803,7234 4828,7218 4862,7197 4896,7180 4933,7159 4971,7138 5013,7117 5059,7096 5105,7075 5155,7054 5206,7033 5260,7012 5315,6991 5369,6970 5428,6949 5491,6928 5554,6912 5616,6895 5684,6878 5751,6866 5822,6853 5889,6840 6036,6824 6333,6811 6639,6828 6786,6845 6933,6866 7079,6891 7218,6916 7352,6945 7482,6975 7603,7000 7716,7025 7821,7050 7913,7067 7993,7084 8060,7092 8324,7100 8576,7092 8835,7071 8680,7260 8286,7268 7922,7247 7733,7222 7557,7188 7465,7167 7364,7155 7251,7138 7134,7125 6870,7109 6593,7100 6031,7100 5549,7121 5181,7167 5101,7184 5030,7201 4967,7218 4904,7234 4849,7251 4803,7264 4732,7293 "/>
    <polygon class="fil10" points="746,6736 788,6719 838,6702 905,6677 943,6664 985,6648 1035,6635 1086,6618 1140,6597 1199,6581 1257,6564 1320,6543 1387,6526 1459,6505 1530,6484 1601,6467 1681,6446 1756,6430 1840,6413 1920,6396 2003,6379 2087,6363 2175,6346 2263,6333 2439,6308 2620,6291 2796,6279 2963,6270 3261,6262 3735,6279 4024,6312 4124,6329 4196,6572 4137,6564 3982,6543 3873,6530 3747,6518 3605,6505 3454,6493 3127,6476 2787,6467 2452,6480 2146,6518 2008,6543 1882,6564 1760,6589 1647,6610 1547,6631 1450,6652 1362,6669 1287,6685 1215,6702 1157,6715 1065,6736 989,6757 "/>
    <polygon class="fil10" points="4372,6396 5285,6710 4954,6870 4405,6643 "/>
    <polygon class="fil10" points="8513,2536 8513,2469 8483,2309 8450,2221 8425,2175 8391,2133 8358,2092 8312,2058 8286,2041 8261,2024 8232,2012 8203,1999 8140,1978 8077,1962 8014,1949 7947,1936 7821,1924 7700,1928 7586,1953 7532,1974 7482,1999 7394,2071 7327,2167 7243,2402 7230,2523 7243,2641 7255,2695 7276,2750 7301,2800 7331,2850 7368,2892 7415,2934 7440,2951 7465,2968 7494,2984 7524,2997 7553,3014 7582,3022 7645,3043 7708,3051 7767,3060 7884,3060 7997,3043 8098,3014 8144,2993 8186,2972 8316,2875 8391,2758 8433,2636 8458,2498 8471,2653 8458,2800 8433,2880 8416,2917 8400,2955 8374,2993 8345,3030 8265,3097 8244,3114 8224,3131 8198,3144 8173,3160 8148,3173 8119,3185 8064,3206 8006,3227 7943,3240 7817,3257 7683,3248 7549,3215 7482,3190 7423,3160 7394,3144 7368,3127 7343,3110 7318,3093 7230,3018 7159,2938 7104,2850 7071,2766 7046,2603 7058,2439 7075,2351 7100,2259 7134,2171 7155,2125 7180,2083 7205,2041 7239,2004 7272,1970 7310,1932 7348,1903 7368,1890 7389,1874 7431,1853 7477,1832 7519,1811 7565,1794 7607,1781 7654,1773 7742,1756 7825,1752 7980,1765 8123,1790 8194,1811 8261,1836 8295,1853 8328,1874 8362,1890 8391,1915 8450,1970 8504,2041 8559,2200 8559,2364 8530,2486 "/>
    <polygon class="fil10" points="6115,2783 6136,2791 6203,2808 6312,2821 6463,2825 6622,2804 6752,2771 6803,2754 6840,2741 6870,2729 6903,2804 6870,2825 6836,2846 6790,2871 6761,2884 6731,2896 6660,2921 6585,2938 6505,2947 6207,2951 6086,2947 "/>
    <polygon class="fil10" points="8186,3374 8215,3399 8286,3470 8328,3517 8366,3575 8412,3705 8442,3994 8592,3898 8571,3760 8542,3634 8521,3575 8492,3517 8462,3466 8425,3424 8353,3357 8324,3336 8295,3320 8274,3307 "/>
    <polygon class="fil10" points="8823,2037 8852,2008 8869,1995 8890,1983 8911,1970 8940,1953 8970,1936 9003,1920 9041,1907 9079,1895 9162,1874 9259,1865 9686,1853 9628,2016 9431,2012 9070,2037 8936,2071 8890,2092 8856,2117 8810,2167 "/>
    <polygon class="fil10" points="7926,1538 7947,1207 7926,1115 7888,1019 7863,972 7838,926 7813,880 7783,838 7733,763 7691,700 7645,645 7888,637 7913,692 7943,746 7976,809 8010,880 8039,947 8064,1044 8056,1165 8035,1345 8006,1580 "/>
    <polygon class="fil10" points="7297,1760 6912,1484 6824,1605 7188,1815 "/>
    <polygon class="fil10" points="8932,2708 8861,2863 9456,3014 "/>
    <polygon class="fil10" points="3378,3374 3659,3450 3852,3462 4095,3387 4242,3328 4271,3236 4405,3253 4372,3387 4204,3470 3839,3575 3491,3546 3248,3479 "/>
    <polygon class="fil10" points="4837,3382 5579,3600 6254,3818 5981,3634 5399,3450 "/>
    <polygon class="fil10" points="3081,3554 3391,3642 3802,3676 4342,3554 4636,3429 4644,3286 4795,3299 4787,3470 4476,3630 3823,3806 3278,3772 2951,3651 "/>
    <polygon class="fil10" points="2796,3726 3169,3902 3844,3953 4682,3739 5097,3521 5093,3290 5243,3311 5243,3554 4795,3827 3823,4095 3018,4020 2678,3806 "/>
    <polygon class="fil10" points="2418,4020 2779,4296 3844,4418 5134,4049 5688,3634 5696,3403 5545,3374 5524,3546 4975,3944 3844,4263 2888,4170 2565,3923 "/>
    <polygon class="fil10" points="2112,4124 2133,4254 2586,4581 3877,4694 5445,4242 6078,3743 6086,3491 5897,3441 5893,3663 5285,4129 3860,4544 2657,4447 2284,4158 2226,4011 "/>
    <polygon class="fil10" points="1861,4292 1953,4464 2456,4736 3701,4833 3667,4988 2439,4912 2259,4787 2150,4854 1840,4606 1777,4372 "/>
    <polygon class="fil10" points="4020,4803 5227,4535 5558,4401 5512,4577 4694,4858 4263,4950 "/>
    <polygon class="fil10" points="5755,4292 6275,3869 6325,3605 6522,3672 6421,3990 5864,4401 "/>
    <polygon class="fil10" points="7167,3332 6974,4007 7377,3395 "/>
   </g>
  </g>
 </g>
</svg>
